PathFileType	4	(X/Y/Z)	63_2_35_p1_0-279.trc
DataRate	CameraRate	NumFrames	NumMarkers	Units	OrigDataRate	OrigDataStartFrame	OrigNumFrames
46.0	46.0	5	27	m	46.0	0	280
Frame#	Time	RHip			RKnee			RAnkle			RBigToe			RSmallToe			RHeel			LHip			LKnee			LAnkle			LBigToe			LSmallToe			LHeel			Neck			Head			Nose			RShoulder			RElbow			RWrist			RThumb			RIndex			RPinky			LShoulder			LElbow			LWrist			LThumb			LIndex			LPinky			
		X1	Y1	Z1	X2	Y2	Z2	X3	Y3	Z3	X4	Y4	Z4	X5	Y5	Z5	X6	Y6	Z6	X7	Y7	Z7	X8	Y8	Z8	X9	Y9	Z9	X10	Y10	Z10	X11	Y11	Z11	X12	Y12	Z12	X13	Y13	Z13	X14	Y14	Z14	X15	Y15	Z15	X16	Y16	Z16	X17	Y17	Z17	X18	Y18	Z18	X19	Y19	Z19	X20	Y20	Z20	X21	Y21	Z21	X22	Y22	Z22	X23	Y23	Z23	X24	Y24	Z24	X25	Y25	Z25	X26	Y26	Z26	X27	Y27	Z27	
0	0.0	0.28868637069832065	0.5440476509161664	0.6848024531156791	0.33311493632867134	0.7208834748023365	1.153694472291986	0.3351932933623764	0.8448059436494021	1.5732578664574803	0.28995623363036244	0.6483021333113785	1.6221249900162513	0.35360295015890997	0.6507940754454135	1.603572888785029	0.32569009685836053	0.9628639129484385	1.6233049274842415	0.07286976274779945	0.5742598224553047	0.6957518752675766	0.09247987562345396	0.7121795855097219	1.1451266306223493	0.12818143243034882	0.8653493991854301	1.5609615780709536	0.13540398224647893	0.642078542480011	1.6041495798189835	0.07766717485044444	0.7297420749885509	1.611400858301141	0.1444861839677679	0.9516955964824542	1.6211472578188262	0.1648874992871869	0.38886548881281374	0.15419013775344717	0.1697287280736455	0.2607332216764017	-0.0697090533468737	0.1514643831195249	0.21849377265044317	0.06138394643067712	0.3226326651602447	0.3792358838263408	0.24424384626784812	0.3511673737121565	0.4347898611580971	0.5103563498831484	0.27354318433866587	0.40216720888491253	0.7512975468315279	0.17762824067804459	0.429931902832759	0.8466669129491372	0.17618429920563577	0.45119346319629805	0.8711175334678457	0.19234189167344273	0.43722940414855016	0.8678535343984626	0.014739091483888338	0.3847421826491155	0.25379015423034024	0.005472997470920935	0.4305309852088995	0.5104188603633387	0.11320156936793953	0.4069740790729032	0.7551901101441192	0.19596022538545807	0.4039230569747172	0.8050490042363208	0.20061773452589862	0.4310193023917349	0.854858594831299	0.18208219942296394	0.4508315113202843	0.8725519163767563
1	0.021739130434782608	0.293614532503438	0.5578422372091806	0.6851767848230156	0.33342081453230843	0.7330586065966117	1.1558417859140466	0.3322665593848227	0.8630596716727097	1.5787068340526924	0.2895789868847208	0.6476438460147534	1.622035091344599	0.3535099912157242	0.6507101365900713	1.6037051672512292	0.3225375018580784	0.982867149880322	1.628676941705127	0.07276988653072454	0.5745338050778868	0.6958496206100185	0.09299047393078937	0.7118897990022564	1.1491255209886702	0.12773104471540345	0.8660356762438819	1.5571221651232758	0.1361118091621187	0.6724132192477743	1.6135556812232839	0.0786439005653941	0.7283998890634492	1.6070285089186034	0.1396721089236359	0.9353781019712027	1.6163290340238632	0.165060529411387	0.3891503475763464	0.15418802692237626	0.1697000159509305	0.2605900386762519	-0.06956018455305336	0.1514396744162754	0.21860116917118502	0.06142794972525207	0.3233059987467025	0.38118258032083774	0.24753977886956513	0.35203306927449646	0.4368673502930029	0.5140145697433792	0.2738210255727302	0.400756999867254	0.747864555475043	0.17829164376390796	0.4301375623534628	0.8510474642505569	0.1765295509702487	0.4511914964184997	0.8716140457623744	0.1923106369469861	0.4371745161743391	0.867958668827614	0.014725151444793584	0.3847948662920502	0.2538281712248455	0.005635978469172176	0.4305653992742841	0.5137944707723644	0.11391640241088684	0.3950500499648501	0.7509580847037832	0.1957134931473205	0.40558016363871624	0.8103059852446999	0.20415196795030663	0.4332353695449636	0.8550977228577126	0.17864411345079279	0.4642468488959301	0.8738079798974823
2	0.043478260869565216	0.29367103674943257	0.5581358207559171	0.6854759081620027	0.3284044564402472	0.719259946732203	1.1536931677708235	0.3321452131825645	0.8628885942423054	1.5787646265343458	0.2954937696669029	0.6637601165440599	1.6264175403070025	0.3517619788232586	0.6685125490980064	1.6092516360037374	0.3225635612221886	0.9825538705657455	1.6293101537789325	0.0727665657537343	0.5745859779643797	0.695930966606504	0.09257840854484048	0.7124329342341836	1.145293603510733	0.12772289807562567	0.866056870733036	1.5570370328559395	0.13573255591856526	0.67344655013152	1.6094602271047	0.07879164976181458	0.7286246795006294	1.6070079371575192	0.13785811950178617	0.9328954651872244	1.6071173073929417	0.1650809476337173	0.3892850024462027	0.15415489920785455	0.169829544262053	0.2606344831490454	-0.0695673518754004	0.15150021329271432	0.21862832663193354	0.06144650004784921	0.3232532238553551	0.3811010811860997	0.2476536954472829	0.35196078009825477	0.43685079807704424	0.5140303277641921	0.27381580601242594	0.40065393562182244	0.7478108245263213	0.17837818195676283	0.4299765408436996	0.8509979721799007	0.17656244147472508	0.4509185529915036	0.8716898455494676	0.19608240798193058	0.43847615026609554	0.8679746613617783	0.0147240707595384	0.38481533200416557	0.25381612718828916	0.005581715654755152	0.4305961340628381	0.5138243043381626	0.10970267504583982	0.3938202207717088	0.7510561122275676	0.19572517159320363	0.40593531297163066	0.8104938980131434	0.20416945285544266	0.4334095803361601	0.855265593715395	0.17863857788230186	0.46420212820861334	0.8737283634307759
3	0.06521739130434782	0.2933975544673423	0.5592954103962469	0.6895570264077869	0.33345162966085823	0.7331661900106385	1.1558753441536949	0.33221869167046364	0.8629777248869268	1.578852912371355	0.29070081124443914	0.64710355714547	1.6255897187981256	0.35408402243937004	0.6510740606791598	1.6037960114345418	0.3225744326321113	0.9826940083052249	1.6289454623072375	0.07277251570759234	0.5745687415417771	0.6959568297296392	0.09250610974731746	0.7124082221631345	1.1453016441407937	0.12772528313587184	0.8659192738773548	1.5570578773324388	0.1355905093946585	0.6732100422890479	1.6095942946245583	0.07859582544123574	0.7282952503095904	1.60702540901232	0.13922173700064785	0.9355854046010327	1.6123377983669902	0.16513791759434102	0.3890967221990501	0.15424182197982433	0.16988697101690045	0.26064033196640857	-0.06955139881159615	0.15509932008680063	0.21942437754589483	0.0610793425820792	0.3274202277454505	0.3820039441409619	0.24734687879973027	0.3519916157364165	0.436997451610114	0.5141175848356349	0.26973259950577194	0.40034541162515264	0.7481675488832114	0.1760620937657865	0.44595054513336063	0.8561798733502332	0.17646709952576248	0.45178360642279003	0.8716474751597258	0.19625818146363944	0.438953001669999	0.8681604849990247	0.014732604899360572	0.38485390029501587	0.2537587589098289	0.005311051591599105	0.4306118867548525	0.5103516137977205	0.10965454039863655	0.39386900649457535	0.7510233492384341	0.19233949576861703	0.41766528919763457	0.8065336422315424	0.19270795332592736	0.43343526308870894	0.855484849073524	0.18196963546172548	0.45096466067977053	0.8723599306898895
4	0.08695652173913043	0.29369476564928787	0.5576403001254859	0.6852697127660036	0.33345382695076	0.732992175811382	1.1558754479173914	0.33515712409725684	0.8443908287638384	1.5732919711658537	0.2952167972431472	0.6629361788578568	1.626264955537185	0.35412569814094585	0.6512441881254618	1.6035916096948297	0.32572650229869377	0.9628631063815903	1.6231899655483435	0.0728656089413719	0.5744802819507772	0.6959915894447286	0.09331446325780328	0.7109006387677772	1.1411237439895376	0.1277548104551999	0.8658592531648874	1.5568079845086316	0.13613736531060552	0.6719659873706825	1.6132445613058228	0.08298114367875256	0.7287713423415374	1.6067378174456766	0.14362312858469586	0.938570053931817	1.612919453809784	0.1684012611376476	0.3756133057520203	0.15617394834425577	0.17001331649417936	0.2603065632162379	-0.06944632155942426	0.15553255937270938	0.22095944928870567	0.06429827459742583	0.32747680650794514	0.38182013091791955	0.24741238655908	0.3519800532062932	0.4371942584163256	0.5141879909729844	0.2735404976071046	0.4020984243916277	0.7512751181017182	0.17556816965694658	0.443166577673611	0.8522954125121973	0.17672038622454783	0.4512320041099021	0.8718937617622649	0.19227398163480888	0.4370049563157526	0.8680236986748044	0.0147292604110848	0.3847256218405376	0.25380188986523544	0.009339845373296001	0.43244431283345364	0.5169676667170673	0.11359296776819144	0.3960289705010854	0.7546102519507419	0.19194693476993563	0.41787643074604736	0.8113033890885952	0.1963375921203603	0.4346765487955702	0.8552446415119717	0.17867050537616788	0.4642472588964811	0.8735460293619148
